<svg id="Layer_1" data-name="Layer 1" xmlns="http://www.w3.org/2000/svg" viewBox="0 0 341 77"><path d="M78.44,49h92.27V75.42H78.44ZM166.57,68a1.62,1.62,0,0,1-.49.08c-.52,0-.79-.23-.79-.9v-5c0-2.63-2.08-3.92-4.58-3.92a11.06,11.06,0,0,0-4.94,1.05l-.45,2.65,2.63.28.38-1.3a3.59,3.59,0,0,1,1.77-.33c1.87,0,1.89,1.41,1.89,2.6v.36a17.09,17.09,0,0,0-1.89-.1c-2.64,0-5.38.67-5.38,3.5a3.26,3.26,0,0,0,3.56,3.31A4.17,4.17,0,0,0,162,67.94a2.37,2.37,0,0,0,2.54,2.31,4.32,4.32,0,0,0,2.08-.53Zm-7.09-.07a1.21,1.21,0,0,1-1.35-1.34c0-1.25,1-1.56,2.2-1.56a11.64,11.64,0,0,1,1.66.15,2.55,2.55,0,0,1-2.51,2.74ZM151.8,52.39l-5,17.61h3.25l5-17.6Zm-6.71,0L140.1,70h3.25l5-17.61ZM134.48,62.63h3.46V58.46h-3.46Zm0,7.39h3.46V65.85h-3.46Zm-5.57-2.52h-3.74l6.4-7.3-.25-1.74H121.19l-.42,4,2.38.25.52-1.79h3.61l-6.35,7.29.34,1.74h10.07l.72-4-2.6-.25Zm-16-9.27c-4.17,0-6.19,2.79-6.19,6.17,0,3.68,2.46,5.85,6,5.85s6.35-2.32,6.35-6c0-3.22-2-6-6.17-6Zm-.08,9.48c-1.8,0-2.72-1.54-2.72-3.53,0-2.18,1-3.44,2.74-3.44s2.82,1,2.82,3.38-1.13,3.59-2.84,3.59Zm-9.1-5.49a3.73,3.73,0,0,0-4-4A3.87,3.87,0,0,0,96,60.71a3.74,3.74,0,0,0-3.76-2.49,3.82,3.82,0,0,0-3.51,2V58.45H83.91V61h1.54v6.53H83.91V70h7V67.49h-2.2v-4c0-1.61.67-2.74,2.23-2.74,1.3,0,2,.77,2,2.77V70h4.83V67.5H96.25v-4c0-1.61.66-2.74,2.23-2.74,1.3,0,2,.77,2,2.77V70h4.84V67.48h-1.53ZM225.07,27.74h-9.68c.35-3,1.78-5.48,5-5.48,3.46,0,4.93,2.86,4.64,5.48ZM339,1.58V46.44H78.44V1.58ZM112.25,12.18h-5.93L96.55,32.39h-.16l-10-20.21H80.43v2.54H83.8v20.7H80.55V38h9.12V35.42H86.58V18.88h.15l8.85,17.8h1.57L105.8,19H106V35.42h-3V38h9.15V35.42h-3.22V14.72h3.38ZM127.64,38c8.13,0,13.06-5.36,13.06-13,0-7.46-4.76-12.86-13.18-12.86H116v2.5h3.25V35.49H116V38Zm41.65-25.81H159.4v2.54h3.89V32.07h-.16L148.44,12.18h-5.56v2.54h3.42v20.7h-3V38h9.83V35.42h-4.08V17.66h.15l15,20.33h1.87V14.72h3.22Zm41.13,8.14h-7.94v2.26h2.82l-2.86,11.16h-.2l-5.52-13.42h-1.86l-5.27,13.43h-.2L186.1,22.59h3V20.32h-8.33v2.26h2.35l5,15.41h2.08l5.29-13.5h.2L201,38h2.15l4.8-15.4h2.43Zm10.33,18.06c4.36,0,6.95-2.43,7.43-5.49l-2.34-.52A4.56,4.56,0,0,1,221,36c-3.52,0-5.44-2.26-5.6-6.19h12.41a10.36,10.36,0,0,0,.24-2.08c0-4.18-2.66-7.75-7.51-7.75-5,0-8.1,4-8.1,9.46,0,5.71,3.33,9,8.34,9Zm20.64,0c5.64,0,7.91-5,7.91-9.69,0-5.61-3.18-8.73-7.58-8.73a6.62,6.62,0,0,0-6.32,4V10.67H230v2.26h2.6v19.9a34.31,34.31,0,0,1-.52,5.16h2.78c0-.19.36-2.74.36-2.93a6.74,6.74,0,0,0,6.19,3.33Zm40.35-2.66h-3.06v-25H271.6v2.26h4.3V23.18A6.48,6.48,0,0,0,270,20c-5.76,0-8,4.93-8,9.65,0,5.52,3,8.77,7.58,8.77a7,7,0,0,0,6.31-4V38h5.83Zm10.72,2.66c5.43,0,8.85-3.89,8.84-9.25,0-5-3-9.21-8.7-9.21s-8.73,4.21-8.73,9.38,3.22,9.09,8.58,9.09Zm19.93,0a7.11,7.11,0,0,0,7.49-6.33l-2.38-.52c-.52,2.9-2,4.49-4.77,4.49-3.49,0-5.4-2.52-5.4-6.77,0-3.81,1.51-6.91,5.28-6.91a6.8,6.8,0,0,1,3.78,1l.64,3,2.31-.27-.68-4.25a9.4,9.4,0,0,0-6-1.83c-5.47,0-8.25,4.57-8.25,9.46,0,5.67,3.13,9,8,9Zm17.19,0c4.25,0,7.51-2.06,7.47-5.53,0-7-10.94-3.38-10.94-8,0-1.81,1.59-2.6,3.81-2.6a7.56,7.56,0,0,1,3.65.87L334,26l2.3-.28-.43-4.13A12.55,12.55,0,0,0,329.69,20c-3.21,0-6.55,1.39-6.55,5.12,0,6.87,11.07,3.18,11.07,8,0,2-2.3,3-4.76,3a9,9,0,0,1-3.93-.87l.12-2.35-2.23-.24-.55,4a13.39,13.39,0,0,0,6.71,1.75ZM246.36,29c0,3.66-1.63,7-5.52,7a5.32,5.32,0,0,1-5.44-5.32V28a5.85,5.85,0,0,1,5.6-5.68c3,0,5.36,2.23,5.36,6.63Zm29.54-1.63v2.82c-.12,2.67-2.42,5.84-5.6,5.84s-5.36-2.26-5.36-6.59c0-3.73,1.75-7.07,5.68-7.07a5.17,5.17,0,0,1,5.28,5Zm22.48,1.75c0,4-2.07,6.91-5.84,6.91s-5.76-3-5.76-6.87,2.06-6.83,5.76-6.83,5.84,2.74,5.84,6.78Zm-160.76-4c0,6.41-3.57,10.42-10.12,10.42h-5.36V14.68h5.34c6.55,0,10.13,4.17,10.15,10.41ZM2,1.58H75.85V75.42H2Zm64.51,33.9c-.06-1.11-.19-2.22-.26-3.33a2.69,2.69,0,0,0-.61-1.51,3.89,3.89,0,0,0-1.58-1.14c-1.25-.48-2.5-1-3.75-1.5a33.28,33.28,0,0,1-5.15-2.27,4,4,0,0,1-2-3,4.58,4.58,0,0,0-2.27-3.44,6.21,6.21,0,0,0-4.55-.53,7,7,0,0,1-3.44-.05l-1.71-.53L40.75,18l-1.35-.4c-2.42-.72-3.43-1.1-7.35-.43a22.61,22.61,0,0,0-10.92,6L11.32,33.6h8.81l-5.39,5.71H24L18.62,45h7.46L23.7,51.27c9.13,9.35,18.86,11.24,18.86,11.24,0-2.58.59-12.69,1.27-14.39A8.22,8.22,0,0,1,45,45.75a6.48,6.48,0,0,1,5.22-2.38,16.64,16.64,0,0,1,5.88,1.08,4,4,0,0,0,3.5-.19c.78-.46,1.55-.95,2.31-1.44a1.27,1.27,0,0,1,.86-.28,1.9,1.9,0,0,0,2-1.13c.25-.51.54-1,.81-1.49a8.38,8.38,0,0,0,1-4.44Z"/></svg>